<svg xmlns="http://www.w3.org/2000/svg" width="720" height="544" viewBox="0 0 720 544" role="img" aria-label="前の記事で崩れた条件を、別日に書式3種で再実行した結果を比べた横棒グラフ。同じ材料2本（過去分100件）に、対策の一文の有無×書式指定3種（簡潔に・表形式・絵文字）＝6条件を各2回=4回ずつ実行した（計24回）。「対策なし・簡潔に」は前の記事（2026-09-22実測）では4回中0回しか正答しなかったが、この記事の再実行（2026-10-11）では4回とも正答した。「対策なし・表形式」「対策なし・絵文字」も4/4。「対策＋優先」の3条件（簡潔に・表形式・絵文字）もすべて4/4。6条件とも4/4で、前の記事の崩れ方は再現しなかった。">
<style>
  .bg { fill: #fbfcfd; }
  .box { fill: #ffffff; stroke: #d5dae0; stroke-width: 1.5; }
  .box-accent { fill: #eaf1fc; stroke: #1a56b8; stroke-width: 1.5; }
  .box-quiet { fill: #f2f4f6; stroke: #d5dae0; stroke-width: 1.5; }
  .box-bad { fill: #fdf0ef; stroke: #d92b2b; stroke-width: 1.5; }
  .box-good { fill: #eef7f0; stroke: #1a7f37; stroke-width: 1.5; }
  .line { stroke: #8b949e; stroke-width: 1.6; fill: none; }
  .t-bad { fill: #b02020; font-size: 12.5px; font-weight: 700; }
  .t-good { fill: #16682e; font-size: 12.5px; }
  .mono { fill: #1f2328; font-size: 12.5px; font-family: Consolas, "SFMono-Regular", Menlo, monospace; }
  .t { fill: #1f2328; font-size: 13px; }
  .t-sm { fill: #616b76; font-size: 11.5px; }
  .t-xs { fill: #8b949e; font-size: 10.5px; }
  .t-strong { fill: #1f2328; font-size: 13.5px; font-weight: 700; }
  .t-accent { fill: #1a56b8; font-size: 13px; font-weight: 700; }
  .bar-in { fill: #7aa7e0; }
  .bar-out { fill: #1a56b8; }
  .bar-old { fill: #c8d1da; }
  .bar-new { fill: #1a56b8; }
  @media (prefers-color-scheme: dark) {
    .bg { fill: #191d21; }
    .box { fill: #14171a; stroke: #363c43; }
    .box-accent { fill: #1b2735; stroke: #7ab0ff; }
    .box-quiet { fill: #1c2126; stroke: #363c43; }
    .box-bad { fill: #2a1a1a; stroke: #f07a7a; }
    .box-good { fill: #16261b; stroke: #57ab68; }
    .line { stroke: #6e7781; }
    .t-bad { fill: #f07a7a; }
    .t-good { fill: #57ab68; }
    .mono { fill: #e6e9ec; }
    .t { fill: #e6e9ec; }
    .t-sm { fill: #9aa4ae; }
    .t-xs { fill: #6e7781; }
    .t-strong { fill: #e6e9ec; }
    .t-accent { fill: #7ab0ff; }
    .bar-in { fill: #4a72a8; }
    .bar-out { fill: #7ab0ff; }
    .bar-old { fill: #3a4149; }
    .bar-new { fill: #7ab0ff; }
  }
</style>
<rect class="bg" x="0" y="0" width="720" height="544"/>
<text class="t-strong" x="18" y="26">前回崩れた条件も、別日の再実行では崩れなかった</text>
<text class="t-sm" x="18" y="45">同じ材料2本（過去分100件）に、6条件を各2回=4回ずつ実行した（計24回）。</text>
<text class="t-sm" x="18" y="64">正しい答えは「新着0件」。前回（2026-09-22）0/4だった条件が、今回は4/4だった。</text>
<text class="t-xs" x="18" y="83">生の回答は docs/evidence/ に全文置いてある。</text>
<text class="t-sm" x="18" y="160">対策なし・簡潔に（前回は0/4だった条件）</text>
<rect class="box" x="320" y="168" width="320" height="32" rx="4"/>
<rect class="box-good" x="320" y="168" width="320.0" height="32" rx="4"/>
<text class="t-good" x="654" y="189">4/4</text>
<text class="t-xs" x="320" y="215">2026-09-22は0/4。今回は再現せず4/4</text>
<text class="t-sm" x="18" y="222">対策なし・表形式に固定</text>
<rect class="box" x="320" y="230" width="320" height="32" rx="4"/>
<rect class="box-good" x="320" y="230" width="320.0" height="32" rx="4"/>
<text class="t-good" x="654" y="251">4/4</text>
<text class="t-xs" x="320" y="277">今回は崩れず4/4</text>
<text class="t-sm" x="18" y="284">対策なし・絵文字で見やすく</text>
<rect class="box" x="320" y="292" width="320" height="32" rx="4"/>
<rect class="box-good" x="320" y="292" width="320.0" height="32" rx="4"/>
<text class="t-good" x="654" y="313">4/4</text>
<text class="t-xs" x="320" y="339">今回は崩れず4/4</text>
<text class="t-sm" x="18" y="346">対策＋優先・簡潔に</text>
<rect class="box" x="320" y="354" width="320" height="32" rx="4"/>
<rect class="box-good" x="320" y="354" width="320.0" height="32" rx="4"/>
<text class="t-good" x="654" y="375">4/4</text>
<text class="t-xs" x="320" y="401">前回・今回とも4/4</text>
<text class="t-sm" x="18" y="408">対策＋優先・表形式に固定</text>
<rect class="box" x="320" y="416" width="320" height="32" rx="4"/>
<rect class="box-good" x="320" y="416" width="320.0" height="32" rx="4"/>
<text class="t-good" x="654" y="437">4/4</text>
<text class="t-xs" x="320" y="463">今回4/4</text>
<text class="t-sm" x="18" y="470">対策＋優先・絵文字で見やすく</text>
<rect class="box" x="320" y="478" width="320" height="32" rx="4"/>
<rect class="box-good" x="320" y="478" width="320.0" height="32" rx="4"/>
<text class="t-good" x="654" y="499">4/4</text>
<text class="t-xs" x="320" y="525">今回4/4</text>
</svg>
